<?xml version="1.0" encoding="UTF-8"?>
<svg id="Layer_1" xmlns="http://www.w3.org/2000/svg" version="1.1" viewBox="0 0 1920 1080">
  <!-- Generator: Adobe Illustrator 29.8.2, SVG Export Plug-In . SVG Version: 2.1.1 Build 3)  -->
  <defs>
    <style>
      .st0 {
        fill: #fff;
      }
    </style>
  </defs>
  <path class="st0" d="M1920,136.1v807.8H0V136.1h1920ZM1775,732.8c44.4-7.3,88.7-20.3,123.4-49.9-4.8-110.4-48.9-213.6-121.9-295.5-127.1-142.4-306.3-218.5-496.8-161.6-56,16.7-109.5,43.7-157.4,76.8.7,1.4,2.3-.2,3.2-.7,67.6-37.7,139.7-66.8,217.3-76.4,67.9-8.4,137.6-.6,201.7,22.6l1.2,1c8.1,30.1,27.8,62,55.4,77.8s5,3.3,7,2.6c-23.3-17.4-39.8-44.6-44.1-73.4,44,14.7,76.6,56.3,75.8,103.6,1.7.2.9-2.2,1-3.3,1.1-25.9-4-49.8-19.2-71-.2-.6.9-.7,1.4-.5,6.2,2.6,19.4,12.2,25.8,16.5,126.3,84.9,218.5,217.1,232.1,371.6-.1,3-5.2,5.7-7.9,7.6-15,10.5-34.1,18.7-51.8,23.6l11.3-22.7c-25.7-35.2-63.7-61.4-100.6-83.8l35.5-37.4c-86.6-3.8-173.8,23.7-240.9,78.2,6.6,6.6,14.7,11.5,21.6,17.7,23.3,21.2,43.2,54.4,51.4,84.9s1.7,4.6,1.7,6c0,2.1-10,6.4-12.3,7.4-20,8.7-42.7,12-64.3,13.9l21.1-19.2c-31.6,3.2-63.2,5.5-94.1-3.9-.4-1.7.7-1.9,1.4-2.9,4.5-5.8,11.7-11.5,16.8-17.8,15.1-18.7,31-48.7,36.3-72.1.3-1.4.8-2.6-1.2-2.2-8.6,5.4-17.8,12.9-26.7,17.4s-2,1.6-2.6.3c25-39.6,34.7-88.2,30.7-134.8-34.3-7.1-69.2-6.5-103.1,2s-11.4,4.2-16.9,4.2c30.7-51.8,78.8-102.3,142.1-108.9l-21.1-8.2c-26.7-6.6-42.4-1.8-67.9,2.2-1,.2-3.3,1-3.1-.7,40.1-17.5,81.5-32.7,125.8-35-30.1-6.4-62.3-.6-90.7,10.1-20.5,7.7-41.4,19.3-57.1,34.5,20-5.3,40.1-8.2,60.9-6.7,2.7.2,8.8.6,10.1,2.9-2.8.3-5.8,1.5-8.3,2.7-61.5,28.3-103.1,87.3-130.9,147,13.3-5.4,25.5-13.7,38.7-19.4,32.3-13.8,69.1-16.7,103.7-12.2l1.2.8c2,2.7-1.8,34.9-2.7,40.6s-3.6,20.6-5.9,25.7-.7,1.8-2.1,2.7c-3.1,1.9-11.5,3.8-15.6,5.5-46.2,19.2-83.7,48.6-110.4,91.1-28.9,46-40.8,100.8-38.4,155l1.8-7.3c5.5-84.1,46.1-159.8,118.9-203.6s24.8-14.8,33.6-17.2c.7-.2,2.1-.7,2.2.3-9.2,19-21.9,34.8-37.4,49l-57.6,48.9,94.1-46.5c.9.9-7.2,12.5-8.4,14.1-7,9.8-17.1,20.6-26.1,28.6-4.7,4.2-13.5,9-17.3,13.4s-1.2,1.1-.9,2.4c10.1,3.2,19.5,8.1,29.8,11,12.5,3.6,23.2,4.7,36,6.2s2.8.6,1.4,1.9l-41.3,16.3c55.7-.5,116.3,5.1,166.7-22.9,2.2-1.2,9-4.7,10.2-5.9s.3-2.4,1.3-3c1.4-.8,5.4-1.1,7.6-1.9,20-7.3,40.1-19.4,57.4-31.9s2.3-1.4,2.6-2.7c-17.3,1.5-34.5,7.7-51.8,4.3-5.7-1.1-24.3-6.8-28.3-10s-5-11.2-7.1-14.8c.4-1.9,13.4-5.3,16-6.1,43.5-12.2,89.6-12.1,133.8-3.8,10.3,1.9,20.5,4.5,30.5,7.4l-54.7,10.6c.4,1.6,2.2,2.1,3.5,2.7,7.5,3.9,19.7,8.9,27.7,11.7,7.1,2.4,15,4.5,22.6,4.8l-5.8,7.7ZM1103.9,394.1c2.2-3.5-12.2-24.5-15.3-28.2-38.2-45.5-113.5-42.7-161.9-16s-86.5,92.2-75.9,152.9c16.6,94.4,143.4,109.6,207.1,52.1,1.7-1.5,10.6-10,11.1-11.1s.7-1.8,0-2.8l-44.4-39.2c-2.6-.7-6.3,4.8-8.5,6.6-50.8,41.1-110.8,8.2-91.6-58,16-55,88.9-83.2,120.5-25.6l58.8-30.7ZM556.8,583.2h74.9l28.3-43.2,2.8-1h93.7c0,0,5.8,44.2,5.8,44.2h72l-39.8-249.5-66.4,1-171.3,248.6ZM325.4,459.4c.1-1.5,1.5-1.5,2.5-1.9,25.6-9.9,45.8-20.7,51.1-50.7,8.8-50.5-35.3-69.7-77.9-71.3l-113.9.5-66.2,247.1h147.4c32-3.2,70.5-13.3,86.3-44.2,15.9-31.2,5.9-68.7-29.2-79.5ZM500.2,335.6h-69.1l-66.2,247.5h188.2l15.4-59.5h-117.1l49-188ZM1211.5,335.6h-68.6l-66.7,247.5h69.1l14.5-56,43.1-39,34.6,95h74.9l-54.5-138.5,116-109h-86.9l-101.8,97.9,26.4-97.9ZM463.5,603.6c-65.1,3.7-122.3,51.3-134.9,115.6-27.9,142.5,151.7,183.3,229.5,81.6,65.9-86.1,20.1-203.9-94.7-197.3ZM956,604.6c-47.2,4-92.8,37.9-88.1,89.4,4.7,52.1,63.6,53,95.7,75.1,17.5,12,6.5,28.3-11,30.7-31.1,4.2-61-12.3-83.3-32.2l-43.6,44.6c36.7,41.8,110.2,55.8,161.4,36.6,58.3-21.9,81.9-96.2,21.5-131.4-18.7-10.9-46.9-16.7-63-28.2-12.3-8.8-7-22.4,5.7-26.8,26.3-9,59,8.1,79.1,24.4,4-6,41.8-44.3,40.8-47.3s-13-10.6-15-11.9c-28.7-19.4-66-25.8-100.3-22.9ZM184.3,608.1h-67.7l-66.7,244.7h67.7l25.4-93.1h86.4l-25,93.1h68.2l65.3-244.7h-68.2l-24,91.1h-86.4l25-91.1ZM706.6,608.1h-67.7c-3.6,8-5.5,17.1-7.9,25.7-9.8,35.1-23.4,77.2-29.6,112.4-12.9,73.8,28.8,112.7,100.9,111.4,64.9-1.2,101.4-33.4,120.7-93.3l42-156.2h-67.7l-1.7,3.1c-13.5,44.6-22.6,91.7-36.7,136.1s-28,55.8-64.1,47.7c-32.1-7.2-27.5-37-21.8-61.5,9.9-42,23.5-83.3,33.5-125.3ZM1307.5,608.1h-195.8l-65.3,244.7h197.8l15.4-57.6h-130.6l11.2-39.2,115.6-.6,14.4-52.3h-116.2l10.2-37.5,128.1-.4,15.3-57.1Z"/>
  <g>
    <path class="st0" d="M325.4,459.4c35.1,10.8,45.1,48.3,29.2,79.5-15.8,30.9-54.3,41-86.3,44.2H121s66.2-247.1,66.2-247.1l113.9-.5c42.6,1.6,86.8,20.8,77.9,71.3-5.2,30-25.5,40.8-51.1,50.7-1,.4-2.3.4-2.5,1.9ZM228.5,434.5h54.2c5.2,0,17.4-4.7,21.5-8.2,7.7-6.5,10.8-20.3,3.3-28.1-11.9-12.4-50.6-4.5-67.1-6.9l-1.5.6-10.4,42.6ZM202.6,528.5h58.1c10.3,0,26.4-7.8,30.3-17.7,7.3-18.5-7.6-26.8-23.7-28.2-16.7-1.5-35.5.5-52.2.3l-12.4,45.6Z"/>
    <g>
      <g>
        <path class="st0" d="M706.6,608.1c-10,42-23.7,83.3-33.5,125.3-5.8,24.5-10.3,54.3,21.8,61.5,36.1,8.1,54.5-17.5,64.1-47.7,14-44.3,23.1-91.4,36.7-136.1l1.7-3.1h67.7l-42,156.2c-19.3,60-55.8,92.1-120.7,93.3-72.1,1.3-113.7-37.6-100.9-111.4s19.8-77.3,29.6-112.4c2.4-8.6,4.3-17.7,7.9-25.7h67.7Z"/>
        <g>
          <path class="st0" d="M463.5,603.6c114.8-6.6,160.6,111.2,94.7,197.3-77.8,101.6-257.5,60.8-229.5-81.6,12.6-64.4,69.8-111.9,134.9-115.6ZM456.7,665c-66.7,7.5-88.3,124-17.4,131.1,90.6,9.1,113.9-141.9,17.4-131.1Z"/>
          <polygon class="st0" points="184.3 608.1 159.4 699.3 245.8 699.3 269.8 608.1 337.9 608.1 272.6 852.8 204.5 852.8 229.4 759.7 143 759.7 117.6 852.8 49.9 852.8 116.6 608.1 184.3 608.1"/>
        </g>
      </g>
      <polygon class="st0" points="1307.5 608.1 1292.2 665.3 1164.2 665.6 1153.9 703.1 1270.1 703.1 1255.7 755.4 1140.1 756 1129 795.2 1259.5 795.2 1244.2 852.8 1046.4 852.8 1111.7 608.1 1307.5 608.1"/>
    </g>
    <g>
      <path class="st0" d="M956,604.6c34.3-2.9,71.6,3.5,100.3,22.9,2,1.3,14.7,11,15,11.9.9,3-36.8,41.4-40.8,47.3-20-16.3-52.8-33.4-79.1-24.4s-18,18-5.7,26.8c16,11.5,44.3,17.3,63,28.2,60.4,35.1,36.7,109.5-21.5,131.4-51.2,19.2-124.7,5.2-161.4-36.6l43.6-44.6c22.3,19.9,52.2,36.4,83.3,32.2,17.5-2.4,28.5-18.6,11-30.7-32.1-22.1-91-23-95.7-75.1-4.6-51.5,41-85.4,88.1-89.4Z"/>
      <path class="st0" d="M1103.9,394.1l-58.8,30.7c-31.6-57.7-104.5-29.5-120.5,25.6-19.2,66.1,40.8,99,91.6,58s5.9-7.3,8.5-6.6l44.4,39.2c.7,1,.5,1.8,0,2.8s-9.4,9.6-11.1,11.1c-63.8,57.5-190.6,42.4-207.1-52.1-10.6-60.8,22.7-123.6,75.9-152.9s123.7-29.5,161.9,16c3,3.6,17.5,24.7,15.3,28.2Z"/>
    </g>
    <g>
      <path class="st0" d="M1775,732.8l5.8-7.7c-7.6-.3-15.4-2.4-22.6-4.8-8-2.7-20.2-7.8-27.7-11.7s-3.1-1.2-3.5-2.7l54.7-10.6c-10-2.9-20.2-5.5-30.5-7.4-44.2-8.2-90.3-8.4-133.8,3.8s-15.6,4.1-16,6.1c2.1,3.6,4.1,12.4,7.1,14.8s22.6,8.9,28.3,10c17.3,3.4,34.6-2.8,51.8-4.3-.3,1.3-1.6,2-2.6,2.7-17.3,12.5-37.4,24.5-57.4,31.9s-6.1,1.1-7.6,1.9-.4,2.1-1.3,3-8,4.7-10.2,5.9c-50.5,27.9-111,22.4-166.7,22.9l41.3-16.3c1.4-1.3,0-1.8-1.4-1.9-12.8-1.5-23.5-2.6-36-6.2-10.2-3-19.6-7.8-29.8-11-.3-1.3.2-1.6.9-2.4,3.8-4.4,12.6-9.2,17.3-13.4,9.1-8,19.1-18.8,26.1-28.6,1.2-1.7,9.3-13.2,8.4-14.1l-94.1,46.5,57.6-48.9c15.5-14.2,28.2-30,37.4-49-.1-1-1.5-.5-2.2-.3-8.8,2.5-25.3,12.2-33.6,17.2-72.8,43.7-113.4,119.4-118.9,203.6l-1.8,7.3c-2.5-54.2,9.4-109,38.4-155,26.7-42.5,64.2-72,110.4-91.1,4.1-1.7,12.5-3.6,15.6-5.5s1.5-1.3,2.1-2.7c2.3-5.1,5-19.6,5.9-25.7s4.7-37.8,2.7-40.6l-1.2-.8c-34.6-4.6-71.4-1.6-103.7,12.2-13.2,5.6-25.4,13.9-38.7,19.4,27.8-59.7,69.4-118.7,130.9-147,2.6-1.2,5.5-2.4,8.3-2.7-1.3-2.2-7.4-2.7-10.1-2.9-20.8-1.6-40.9,1.4-60.9,6.7,15.7-15.3,36.6-26.9,57.1-34.5,28.5-10.7,60.6-16.5,90.7-10.1-44.3,2.4-85.6,17.5-125.8,35-.2,1.7,2.1.9,3.1.7,25.5-4,41.3-8.7,67.9-2.2l21.1,8.2c-63.2,6.6-111.3,57.1-142.1,108.9,5.5,0,11.4-2.9,16.9-4.2,33.9-8.5,68.8-9.1,103.1-2,4.1,46.5-5.7,95.1-30.7,134.8.6,1.4,1.8.1,2.6-.3,8.9-4.6,18.1-12.1,26.7-17.4,2-.4,1.6.8,1.2,2.2-5.3,23.4-21.2,53.5-36.3,72.1-5.1,6.3-12.3,11.9-16.8,17.8s-1.9,1.2-1.4,2.9c30.9,9.3,62.4,7.1,94.1,3.9l-21.1,19.2c21.5-1.9,44.3-5.3,64.3-13.9,2.4-1,12.4-5.3,12.3-7.4s-1.3-4.3-1.7-6c-8.2-30.5-28-63.7-51.4-84.9s-15-11.1-21.6-17.7c67.1-54.5,154.3-82,240.9-78.2l-35.5,37.4c36.9,22.4,74.9,48.6,100.6,83.8l-11.3,22.7c17.6-4.8,36.8-13.1,51.8-23.6s7.7-4.6,7.9-7.6c-13.6-154.5-105.8-286.7-232.1-371.6-6.3-4.2-19.5-13.9-25.8-16.5s-1.6-.2-1.4.5c15.2,21.2,20.3,45.2,19.2,71,0,1.2.7,3.6-1,3.3.8-47.3-31.9-88.9-75.8-103.6,4.3,28.8,20.9,56,44.1,73.4-2,.7-5.3-1.6-7-2.6-27.6-15.7-47.2-47.7-55.4-77.8l-1.2-1c-64.1-23.2-133.9-31-201.7-22.6-77.6,9.6-149.7,38.8-217.3,76.4-.8.5-2.4,2.1-3.2.7,47.9-33.1,101.4-60,157.4-76.8,190.5-56.9,369.7,19.2,496.8,161.6,73.1,81.9,117.2,185.1,121.9,295.5-34.7,29.6-79,42.6-123.4,49.9ZM1724.2,578.4c-47.3,3.9-94.7,17.3-136.3,39.8-7.7,4.2-18.9,10.3-25.6,15.6s-1.8,0-1.2,2.2c29.1,13.2,60.4,12,91.2,6.7.4,1.7-.7,1.9-1.4,2.9-7.2,9.5-15.2,18.5-24.5,25.9,61.6-13.1,126.6-6.8,185.3,15.4,2.9-2.2-3.9-9-5.7-11.1-10-11.4-23.7-21-35.2-30.9-22.2,5.4-45.4,6.1-67.3-.9-10.6-3.4-20.4-9.2-30.9-12.7l54.7-14.8c1.6-1.3.5-1.4-.6-2.3-2.9-2.3-23.3-12.7-23.4-14.1l21.1-21.6Z"/>
      <path class="st0" d="M1724.2,578.4l-21.1,21.6c0,1.4,20.4,11.8,23.4,14.1s2.3,1,.6,2.3l-54.7,14.8c10.6,3.5,20.3,9.4,30.9,12.7,21.9,7,45.2,6.3,67.3.9,11.5,9.9,25.1,19.5,35.2,30.9,1.8,2.1,8.6,8.9,5.7,11.1-58.6-22.1-123.7-28.5-185.3-15.4,9.3-7.4,17.3-16.4,24.5-25.9s1.9-1.2,1.4-2.9c-30.8,5.2-62.1,6.4-91.2-6.7-.6-2.2.4-1.6,1.2-2.2,6.7-5.3,17.9-11.4,25.6-15.6,41.7-22.5,89.1-35.9,136.3-39.8Z"/>
    </g>
    <path class="st0" d="M456.7,665c96.5-10.9,73.2,140.1-17.4,131.1-70.9-7.1-49.3-123.5,17.4-131.1Z"/>
    <g>
      <polygon class="st0" points="1211.5 335.6 1185.1 433.5 1286.9 335.6 1373.8 335.6 1257.8 444.7 1312.3 583.2 1237.4 583.2 1202.9 488.2 1159.8 527.2 1145.3 583.2 1076.2 583.2 1142.9 335.6 1211.5 335.6"/>
      <g>
        <path class="st0" d="M202.6,528.5l12.4-45.6c16.8.1,35.6-1.8,52.2-.3,16.1,1.4,31,9.7,23.7,28.2s-20,17.7-30.3,17.7h-58.1Z"/>
        <path class="st0" d="M228.5,434.5l10.4-42.6,1.5-.6c16.5,2.4,55.2-5.6,67.1,6.9,7.5,7.8,4.3,21.6-3.3,28.1s-16.3,8.2-21.5,8.2h-54.2Z"/>
      </g>
      <g>
        <g>
          <path class="st0" d="M556.8,583.2l171.3-248.6,66.4-1,39.8,249.5h-72l-5.8-44.1h-93.7c0,0-2.8,1-2.8,1l-28.3,43.2h-74.9ZM696,486.3h53.3l1.3-2.2-8.5-68.8-46.1,71Z"/>
          <polygon class="st0" points="500.2 335.6 451.2 523.7 568.3 523.7 553 583.2 364.8 583.2 431 335.6 500.2 335.6"/>
        </g>
        <polygon class="st0" points="696 486.3 742.1 415.3 750.5 484.1 749.3 486.3 696 486.3"/>
      </g>
    </g>
  </g>
</svg>